<svg width="0" height="0" class="hidden">
  <symbol version="1.0" xmlns="http://www.w3.org/2000/svg" preserveAspectRatio="xMidYMid meet" viewBox="0 0 979.000000 1280.000000" id="number-0">
    <g transform="translate(0.000000,1280.000000) scale(0.100000,-0.100000)" fill="#000000" stroke="none">
      <path d="M5525 12089 c-415 -23 -903 -180 -1311 -420 -206 -121 -459 -303
-685 -492 -479 -401 -960 -979 -1317 -1584 -384 -650 -535 -955 -729 -1467
-125 -330 -341 -1003 -448 -1391 -106 -388 -251 -1249 -284 -1695 -55 -727 16
-1469 200 -2080 67 -222 134 -393 244 -615 189 -384 390 -670 665 -945 424
-425 897 -664 1475 -746 156 -22 517 -25 665 -6 932 123 1730 660 2501 1687
1008 1341 1640 3207 1760 5195 15 251 15 913 0 1145 -51 797 -183 1406 -422
1943 -217 490 -555 895 -957 1149 -282 178 -665 299 -1002 318 -200 11 -229
12 -355 4z m540 -628 c524 -141 900 -734 1040 -1639 52 -334 60 -471 59 -987
0 -514 -12 -763 -60 -1240 -161 -1603 -585 -3143 -1228 -4460 -153 -312 -263
-508 -421 -745 -154 -232 -263 -368 -430 -539 -316 -324 -620 -507 -955 -577
-106 -22 -378 -25 -490 -5 -626 112 -1062 688 -1215 1605 -128 768 -53 2010
196 3251 156 776 491 1894 791 2635 223 549 486 1068 746 1465 327 502 761
941 1112 1124 113 59 246 107 350 126 116 22 401 14 505 -14z"></path>
    </g>
  </symbol>
  <symbol version="1.0" xmlns="http://www.w3.org/2000/svg" preserveAspectRatio="xMidYMid meet" viewBox="0 0 640.000000 1280.000000" id="number-1">
    <metadata>Created by potrace 1.15, written by Peter Selinger 2001-2017</metadata>
    <g transform="translate(0.000000,1280.000000) scale(0.100000,-0.100000)" fill="#000000" stroke="none">
      <path d="M3073 10957 l-2912 -1842 -1 -80 0 -80 371 -645 c203 -355 454 -790
556 -968 l185 -323 442 225 c376 191 1315 664 1339 674 4 2 7 -1779 7 -3957
l0 -3961 103 0 c64 0 196 13 348 35 243 34 708 100 1519 214 234 33 587 83
785 111 198 27 375 52 393 55 l32 6 0 6189 0 6190 -127 -1 -128 -1 -2912
-1841z"></path>
    </g>
  </symbol>
</svg>